<svg width="93" height="29" viewBox="0 0 93 29" fill="none" xmlns="http://www.w3.org/2000/svg">
  <path d="M0 16.9885L7.0533 9.61835L12.2692 15.0262L10.4614 16.9885L9.91315 16.4323L8.40172 17.9929L10.8615 20.5887H13.8843L11.0541 17.5911L12.8619 15.6597L25.5163 28.855H11.3949L0 16.9885Z" fill="black" />
  <path d="M27.3833 11.857L20.3152 19.2367L15.1141 13.8177L16.9219 11.857L17.4553 12.4282L18.9816 10.8689L16.5218 8.25973H13.499L16.3292 11.2548L14.5066 13.2001L1.86694 0H15.9735L27.3833 11.857Z" fill="url(#paint0_linear_1_1251)" />
  <path d="M39.7629 13.9314L38.887 17.7339H33.4692L37.8813 1.51427C38.1084 0.639354 38.8221 0.0672913 39.6656 0.0672913H44.5319C45.4078 0.0672913 46.1215 0.639354 46.3162 1.51427L50.7282 17.7339H45.3105L44.4345 13.9314H39.7629ZM42.7151 6.25903C42.5853 5.61966 42.4556 4.87935 42.4231 4.23998H41.7419C41.677 4.87935 41.5796 5.61966 41.4499 6.25903L40.6064 10.0279H43.5262L42.7151 6.25903Z" fill="black" />
  <path d="M57.1194 12.4171C57.1194 12.9555 57.5087 13.3257 58.1576 13.3257H63.8673L64.1269 17.4647C61.5964 17.8349 58.6118 17.8349 55.8218 17.8349C53.3562 17.8349 51.7665 16.186 51.7665 13.8305V0.100952H57.1194V12.4171Z" fill="black" />
  <path d="M78.2713 17.4984C75.8057 17.8349 72.3669 17.8349 69.4147 17.8349C67.0789 17.8349 65.4243 16.186 65.4243 13.8304V4.00444C65.4243 1.61523 67.0789 0 69.4147 0C72.3345 0 75.8057 -2.08288e-08 78.2713 0.336507L78.0118 4.23999H71.783C71.1666 4.23999 70.7773 4.61015 70.7773 5.14856V6.86475H77.1359V10.5663H70.7773V12.6863C70.7773 13.2247 71.1666 13.5949 71.783 13.5949H78.0118L78.2713 17.4984Z" fill="black" />
  <path d="M86.5769 4.23999C85.8956 4.23999 85.5063 4.61015 85.5063 5.14856V7.2349H91.6053V10.9028H85.5387V17.7339H80.1858V4.00443C80.1858 1.61523 81.8728 0 84.2411 0C87.0635 0 90.4699 -4.16577e-08 92.8057 0.370158L92.5462 4.27364H86.5769V4.23999Z" fill="black" />
  <path d="M33.565 25.2259C33.8877 25.1878 34.2426 25.1878 34.6298 25.1878C35.501 25.1878 35.8237 25.6834 35.8237 27.0939C35.8237 28.5044 35.501 29 34.6298 29C34.2103 29 33.8554 28.9619 33.565 28.9619V25.2259ZM33.8554 28.6188C34.0813 28.6188 34.3394 28.6188 34.6298 28.6188C35.2751 28.6188 35.501 28.1994 35.501 27.0558C35.501 25.9121 35.2751 25.4547 34.6298 25.4547C34.3394 25.4547 34.0813 25.4547 33.8554 25.4547V28.6188Z" fill="black" />
  <path d="M41.309 28.8851C40.8895 28.9232 40.4055 28.9232 39.9861 28.9232C39.6634 28.9232 39.4375 28.6945 39.4375 28.3133V25.8354C39.4375 25.4541 39.6634 25.2254 39.9861 25.2254C40.4378 25.2254 40.8895 25.2254 41.309 25.2635L41.2767 25.5304H40.0183C39.8247 25.5304 39.7279 25.6447 39.7279 25.9116V26.8265H41.1154V27.0934H39.7279V28.237C39.7279 28.5039 39.8247 28.6183 40.0183 28.6183H41.2767L41.309 28.8851Z" fill="black" />
  <path d="M46.0518 28.8089C46.0195 28.8851 45.9872 28.9232 45.9227 28.9232H45.6C45.5355 28.9232 45.5032 28.8851 45.471 28.8089L44.4707 25.2254H44.7934L45.6 28.237C45.6323 28.3895 45.6646 28.5039 45.6968 28.6564H45.8259C45.8582 28.542 45.8904 28.3895 45.9227 28.237L46.7294 25.2254H47.052L46.0518 28.8089Z" fill="black" />
  <path d="M52.312 28.8851C51.8926 28.9232 51.4086 28.9232 50.9891 28.9232C50.6664 28.9232 50.4406 28.6945 50.4406 28.3133V25.8354C50.4406 25.4541 50.6664 25.2254 50.9891 25.2254C51.4408 25.2254 51.8926 25.2254 52.312 25.2635L52.2798 25.5304H51.0214C50.8278 25.5304 50.731 25.6447 50.731 25.9116V26.8265H52.1184V27.0934H50.731V28.237C50.731 28.5039 50.8278 28.6183 51.0214 28.6183H52.2798L52.312 28.8851Z" fill="black" />
  <path d="M56.1517 28.1989C56.1517 28.4658 56.2808 28.5801 56.4744 28.5801H57.636V28.847C57.2488 28.8851 56.8293 28.8851 56.4098 28.8851C56.0226 28.8851 55.829 28.6182 55.829 28.237V25.1873H56.1194V28.1989H56.1517Z" fill="black" />
  <path d="M63.2501 27.0552C63.2501 28.4657 62.9274 28.9613 62.0562 28.9613C61.185 28.9613 60.8623 28.4657 60.8623 27.0552C60.8623 25.6447 61.185 25.1491 62.0562 25.1491C62.9274 25.1491 63.2501 25.6447 63.2501 27.0552ZM61.1527 27.0552C61.1527 28.237 61.3786 28.6563 62.0562 28.6563C62.7338 28.6563 62.9597 28.237 62.9597 27.0552C62.9597 25.8735 62.7338 25.4541 62.0562 25.4541C61.3786 25.4541 61.1527 25.8735 61.1527 27.0552Z" fill="black" />
  <path d="M66.8643 25.2254C67.1869 25.1873 67.4128 25.1873 67.8968 25.1873C68.6066 25.1873 68.8648 25.416 68.8648 26.3309C68.8648 27.2077 68.6066 27.4746 67.929 27.4746C67.6064 27.4746 67.3483 27.4365 67.1547 27.4365V28.9613H66.8643V25.2254ZM67.8968 27.1315C68.3808 27.1315 68.5744 26.979 68.5744 26.2928C68.5744 25.6447 68.413 25.4541 67.8968 25.4541C67.6064 25.4541 67.316 25.4541 67.1547 25.4541V27.0934H67.8968V27.1315Z" fill="black" />
  <path d="M75.2858 25.2254C75.3826 25.2254 75.4148 25.3016 75.4148 25.3779L75.5439 28.9232H75.2535L75.1244 25.5304H75.0276L74.221 28.4276C74.1887 28.5039 74.1564 28.542 74.0919 28.542H73.8015C73.737 28.542 73.6724 28.5039 73.6724 28.4276L72.8658 25.5304H72.769L72.6399 28.9232H72.3495L72.4786 25.3779C72.4786 25.2635 72.5109 25.2254 72.6077 25.2254H72.9626C73.0271 25.2254 73.0594 25.2635 73.0916 25.3398L73.7692 27.7414C73.8015 27.8939 73.866 28.0845 73.8983 28.237H73.9951C74.0274 28.0845 74.0919 27.8939 74.1242 27.7414L74.8018 25.3398C74.834 25.2635 74.8663 25.2254 74.9308 25.2254H75.2858Z" fill="black" />
  <path d="M81.0613 28.8851C80.6418 28.9232 80.1578 28.9232 79.7384 28.9232C79.4157 28.9232 79.1898 28.6945 79.1898 28.3133V25.8354C79.1898 25.4541 79.4157 25.2254 79.7384 25.2254C80.1901 25.2254 80.6418 25.2254 81.0613 25.2635L81.029 25.5304H79.7706C79.577 25.5304 79.4802 25.6447 79.4802 25.9116V26.8265H80.8677V27.0934H79.4802V28.237C79.4802 28.5039 79.577 28.6183 79.7706 28.6183H81.029L81.0613 28.8851Z" fill="black" />
  <path d="M86.9335 28.7326C86.9335 28.847 86.9012 28.8851 86.8044 28.8851H86.4818C86.4172 28.8851 86.3527 28.847 86.3527 28.7707L85.1588 25.9878C85.0943 25.8735 85.0298 25.6829 84.9975 25.5304H84.9007C84.9007 25.6829 84.9007 25.8354 84.9007 25.9878V28.8851H84.6103V25.3398C84.6103 25.2254 84.6426 25.1873 84.7394 25.1873H85.062C85.1266 25.1873 85.1911 25.2254 85.1911 25.3017L86.3527 28.0464C86.4172 28.1989 86.4818 28.3895 86.5463 28.542H86.6431C86.6431 28.3514 86.6431 28.1989 86.6431 28.0083V25.1873H86.9335V28.7326Z" fill="black" />
  <path d="M91.6771 25.5304V28.9232H91.3867V25.5304H90.3542V25.2254H92.7419V25.5304H91.6771Z" fill="black" />
  <path d="M93 21.9553H33.307V22.6304H93V21.9553Z" fill="black" />
  <defs>
    <linearGradient id="paint0_linear_1_1251" x1="14.6209" y1="19.2336" x2="14.6209" y2="0.00392222" gradientUnits="userSpaceOnUse">
      <stop stop-color="#2B5972" />
      <stop offset="1" stop-color="#427FA2" />
    </linearGradient>
  </defs>
</svg>